<?xml version="1.0" encoding="UTF-8"?>
<!DOCTYPE svg>
<svg enable-background="new 0 0 1000 1000" fill="#947f7d" version="1.1" viewBox="0 0 1e3 1e3" xml:space="preserve" xmlns="http://www.w3.org/2000/svg">
<metadata> Svg Vector Icons : http://www.onlinewebfonts.com/icon </metadata>
<path d="M500,10C229.4,10,10,229.4,10,500c0,270.7,219.4,490,490,490c270.7,0,490-219.3,490-490C990,229.4,770.7,10,500,10z M500,924.7C265.8,924.7,75.3,734.2,75.3,500S265.8,75.3,500,75.3S924.7,265.8,924.7,500S734.2,924.7,500,924.7z"/><path d="m680.8 273-179.5 179.6-161.1-179.6c-12.7-12.7-33.5-12.7-46.2 0s-12.7 33.5 0 46.2l161.1 179.6-182.1 182c-12.7 12.7-12.7 33.5 0 46.2s33.5 12.7 46.2 0l179.6-179.5 161.1 179.5c12.7 12.7 33.5 12.7 46.1 0 12.7-12.7 12.7-33.5 0-46.2l-161.1-179.5 182.1-182.1c12.7-12.7 12.7-33.5 0-46.2s-33.4-12.8-46.2 0z"/>
</svg>
