<svg xmlns="http://www.w3.org/2000/svg" width="512" height="512"  xmlns:v="https://vecta.io/nano"><g fill="#fff"><path d="M119.387 20.312h21.298v21.045h19.485V20.312h21.303V84.04H160.17V62.7h-19.485v21.338h-21.298V20.312zm90.095 21.132h-18.754V20.312h58.812v21.133h-18.76V84.04h-21.3V41.444zm49.398-21.132h22.2l13.66 22.392 13.648-22.392h22.22V84.04h-21.212V52.453L294.75 75.1h-.366L279.72 52.453v31.585h-20.84V20.312zm82.34 0h21.308v42.664h29.955v21.062H341.22V20.312zM200.662 266.676H256v-42.92h-59.17l3.83 42.92zM88.686 111.982l30.47 341.74 136.762 37.966 136.9-37.948 30.507-341.758H88.686zm278.008 320L256 462.668v-43.494l-.067.02-85.858-23.835-6.004-67.298h42.075l3.116 34.914 46.68 12.607.06-.02V308.6h-93.67l-11.306-126.75H256v-41.914h136.766L366.694 431.98z"/><path opacity=".8" d="M307.592 308.6H256v66.974l46.728-12.613 4.864-54.36zM256 139.927v41.914h104.975l-3.754 41.915H256v42.92h97.406l-11.5 128.683L256 419.174v43.494l110.694-30.687 26.07-292.055H256z"/></g><path d="M256 181.84H151.025L162.33 308.6H256v-41.914h-55.338l-3.83-42.92H256zm0 193.723l-.06.02-46.68-12.607-3.116-34.914H164.07l6.004 67.297 85.86 23.835.067-.02z" opacity=".2" fill="#fff"/></svg>