<svg xmlns="http://www.w3.org/2000/svg" fill="#947f7d" width="24" height="24"  xmlns:v="https://vecta.io/nano"><path d="M19 3H5a2 2 0 0 0-2 2v14a2 2 0 0 0 2 2h14a2 2 0 0 0 2-2V5a2 2 0 0 0-2-2zM7.738 17h0a1.26 1.26 0 0 1-1.262-1.262V11.26c.001-.696.566-1.26 1.262-1.26h0A1.26 1.26 0 0 1 9 11.262v4.477A1.26 1.26 0 0 1 7.738 17zm-.044-8.283c-.77 0-1.286-.514-1.286-1.2s.514-1.2 1.37-1.2c.77 0 1.286.514 1.286 1.2s-.514 1.2-1.37 1.2zM16.78 17h0a1.22 1.22 0 0 1-1.221-1.221v-2.605c0-1.058-.65-1.174-.895-1.174s-1.058.035-1.058 1.174v2.605A1.22 1.22 0 0 1 12.384 17h-.08a1.22 1.22 0 0 1-1.221-1.221v-4.517A1.26 1.26 0 0 1 12.344 10h0a1.26 1.26 0 0 1 1.262 1.262S13.888 10 15.804 10c1.22 0 2.196.977 2.196 3.174v2.605A1.22 1.22 0 0 1 16.779 17z"/></svg>