<svg xmlns="http://www.w3.org/2000/svg" fill="#947f7d" height="682.667" viewBox="0 -61 512 512" width="682.667"  xmlns:v="https://vecta.io/nano"><path d="M332.438 205.28l174.3 140.445 2.066-5.98a76.4 76.4 0 0 0 3.195-21.957V87.566zm-76.774 14.462L509.637 53.246C501.824 22.598 475.56 0 444.445 0h-376.9C36.582 0 10.414 22.395 2.473 52.832zM0 87.137v230.648c0 8.48 1.367 16.793 4.066 24.7.367 1.07.754 2.137 1.168 3.188l174.13-140.3zM305.52 222.93l-34.4 22.547c-4.707 3.07-10.094 4.605-15.477 4.605a28.22 28.22 0 0 1-15.465-4.613L205.66 222.7 21.773 370.875l.625.605C34.824 383.422 50.86 390 67.555 390h376.9c16.852 0 32.836-6.602 45.285-18.645zm0 0"/></svg>