<svg xmlns="http://www.w3.org/2000/svg" width="48" height="48"  xmlns:v="https://vecta.io/nano"><path fill="#388e3c" d="M17.204 19.122l-4.907 2.715c-.184.1-.297.29-.297.492v5.433c0 .203.113.4.297.492l4.908 2.717a.62.62 0 0 0 .593 0l4.907-2.717c.182-.102.295-.29.295-.492V22.33c0-.203-.113-.4-.297-.492l-4.906-2.715c-.092-.05-.195-.076-.297-.076a.61.61 0 0 0-.297.076m25.248 4.89l-.818.452c-.03.017-.05.048-.05.082v.906c0 .034.02.065.05.082l.818.453c.03.017.068.017.1 0l.818-.453c.03-.017.05-.048.05-.082v-.906c0-.034-.02-.065-.05-.082l-.818-.452c-.015-.01-.032-.013-.05-.013s-.034.004-.05.013"/><path fill="#37474f" d="M35.75 13.364l-2.39-1.333c-.075-.042-.167-.04-.24.003s-.12.123-.12.21v8.052l-2.203-1.22c-.092-.05-.195-.076-.297-.076s-.205.025-.297.076h.001l-4.907 2.715c-.184.1-.297.29-.297.49v5.433c0 .203.113.4.297.492l4.908 2.717a.62.62 0 0 0 .593 0l4.907-2.717c.182-.1.295-.29.295-.492V13.788c0-.176-.096-.338-.25-.424zm-2.885 13.094l-2.23 1.235a.28.28 0 0 1-.269 0l-2.23-1.235c-.085-.046-.136-.132-.136-.224v-2.47c0-.092.05-.177.135-.224l2.23-1.234a.28.28 0 0 1 .135-.034.29.29 0 0 1 .135.034l2.23 1.234c.084.047.135.133.135.225v2.47c0 .09-.05.177-.134.223z"/><path fill="#2e7d32" d="M17.204 19.122L12 27.762c0 .203.113.4.297.492l4.908 2.717a.62.62 0 0 0 .593 0L23 22.33c0-.203-.113-.4-.297-.492l-4.906-2.715c-.092-.05-.195-.076-.297-.076a.61.61 0 0 0-.297.076"/><path fill="#4caf50" d="M17.204 19.122l-4.907 2.715c-.184.1-.297.29-.297.492l5.204 8.642a.62.62 0 0 0 .593 0l4.907-2.717c.183-.102.296-.29.296-.492l-5.203-8.64c-.092-.05-.195-.076-.297-.076a.61.61 0 0 0-.297.076"/><path fill="#37474f" d="M47.703 21.79l-4.906-2.715c-.092-.05-.195-.076-.297-.076s-.205.025-.297.076h.001l-4.907 2.715c-.183.1-.297.293-.297.503v5.41c0 .21.114.402.297.503l4.908 2.717c.184.102.41.102.593 0l2.263-1.253a.3.3 0 0 0-.002-.526l-4.924-2.687c-.083-.047-.135-.134-.135-.228v-2.466c0-.092.05-.177.13-.22l2.234-1.236a.28.28 0 0 1 .135-.034.29.29 0 0 1 .135.034l2.235 1.237c.08.044.13.13.13.22v2.012a.24.24 0 0 0 .121.209c.075.042.167.042.242-.001l2.398-1.393c.148-.086.24-.245.24-.417v-1.88c0-.21-.114-.404-.297-.505zm-37 0l-4.906-2.715C5.705 19.025 5.602 19 5.5 19s-.205.025-.297.076h.001L.297 21.79c-.183.1-.297.293-.297.503v7.465a.24.24 0 0 0 .121.209c.075.042.167.042.242-.001l2.398-1.393A.48.48 0 0 0 3 28.157v-4.393c0-.092.05-.177.13-.22l2.235-1.236a.28.28 0 0 1 .135-.034.29.29 0 0 1 .135.034l2.235 1.237c.08.044.13.13.13.22v4.393a.48.48 0 0 0 .24.417l2.398 1.393c.075.043.167.043.242.001s.12-.124.12-.2v-7.464c0-.2-.114-.403-.297-.504z"/></svg>