<svg xmlns="http://www.w3.org/2000/svg" height="682.667" viewBox="0 0 512 512.001" width="682.667" fill="#947f7d"  xmlns:v="https://vecta.io/nano"><path d="M210.664 139.305c-17.332-17.32-47.367-15.488-66.953 4.082-.004.008-.012.012-.02.02-9.13 9.13-14.754 20.836-15.836 32.96-1.16 12.953 3.133 25.332 11.77 33.96 5.86 5.855 15.352 5.855 21.207-.004s5.855-15.363-.004-21.22c-3.2-3.187-3.3-7.676-3.094-10.066.45-5.055 3.066-10.312 7.172-14.418 7.77-7.762 19.012-9.633 24.555-4.1a15 15 0 0 0 21.207-.004c5.86-5.87 5.855-15.367-.004-21.223zm-19.488-45.47c5.883 2.766 12.645 1.38 16.988-2.97a14.85 14.85 0 0 0 2.965-4.227c3.523-7.496.305-16.434-7.2-19.957-30.836-14.496-74.836-2.172-107 29.97-.016.016-.03.027-.047.043-31.957 31.965-44.254 74.344-30.598 105.473 3.328 7.586 12.176 11.035 19.762 7.7 7.6-3.332 11.04-12.18 7.7-19.766-8.457-19.277 1.777-49.637 24.34-72.203l.035-.035c23.02-23.004 53.734-33.113 73.035-24.04zm0 0"/><path d="M72.32 72.32c.02-.016.04-.035.055-.055 34.77-34.742 80.656-50.738 109.105-38.03 5.84 2.605 12.46 1.176 16.727-3.1 1.262-1.262 2.316-2.77 3.086-4.492 3.38-7.566-.016-16.437-7.578-19.816-19.8-8.84-45.043-9.113-71.082-.773-25.47 8.16-50.18 23.715-71.46 44.977-.023.023-.043.047-.066.07-20.923 20.93-36.345 45.23-44.6 70.282-8.547 25.934-8.676 50.234-.37 70.273 3.168 7.656 11.945 11.3 19.598 8.117s11.285-11.945 8.113-19.602c-11.78-28.425 4.397-73.773 38.47-107.85zm410.93 50.067l-46.918-46.922a30.45 30.45 0 0 0-21.641-8.961c-8.168 0-15.855 3.2-21.637 8.96l-82.375 82.383c-11.93 11.93-11.93 31.348 0 43.277l20.906 20.9L222.042 331.57l-20.898-20.906c-11.937-11.94-31.348-11.93-43.285 0l-82.37 82.37a30.41 30.41 0 0 0-8.961 21.637 30.37 30.37 0 0 0 8.96 21.64l46.922 46.922C141.574 502.4 166.746 512 191.918 512s50.352-9.6 69.508-28.758l221.824-221.82c38.332-38.336 38.332-100.7 0-139.035zm0 0"/></svg>