<svg xmlns="http://www.w3.org/2000/svg" fill="#947f7d" height="682.667" viewBox="-91 0 512 512" width="682.667"  xmlns:v="https://vecta.io/nano"><path d="M327.895 134.305c-4.988-36.762-17.94-66.598-38.492-88.684C261.227 15.352 219.37 0 164.992 0S68.762 15.352 40.586 45.625C20.04 67.703 7.1 97.54 2.094 134.305-1.824 163.2-.234 194.2 6.82 226.496c14.934 68.395 40.777 132.926 76.805 191.8 28.8 47.074 55.984 76.785 66.344 87.4a21.15 21.15 0 0 0 15.023 6.305h.023a21.13 21.13 0 0 0 15.008-6.32c10.348-10.6 37.527-40.305 66.328-87.375 36.035-58.883 61.875-123.414 76.805-191.8 7.063-32.277 8.656-63.297 4.738-92.2zM164.992 252.457c-41.496 0-75.254-33.7-75.254-75.12s33.758-75.13 75.254-75.13 75.254 33.703 75.254 75.13-33.758 75.12-75.254 75.12zm0-120.25c-24.953 0-45.254 20.246-45.254 45.13s20.3 45.12 45.254 45.12 45.254-20.242 45.254-45.12-20.3-45.13-45.254-45.13zm0 0"/></svg>